# xmcd
#
# Track frame offsets:
# 150
# 9628
# 23548
# 37738
# 49981
# 70339
# 84147
# 98555
# 112606
# 129758
# 144930
# 161794
#
# Disc length: 2421 seconds
#
#
# Revision: 0
# Processed by: cddbd v1.5PL3 Copyright (c) Steve Scherf et al.
# Submitted via: FreeRIP 2.53 
#
DISCID=7f09730c
DTITLE=Tippin, Aaron - A December To Remember
DYEAR=1900
DGENRE=
TTITLE0=Jingle Bell Rock
TTITLE1=Blue Christmas
TTITLE2=It's A Good Thing Santa Ain't Single
TTITLE3=Christmas Is The Warmest Time Of The Year
TTITLE4=He Said That He Was Jesus
TTITLE5=Away In The Manger
TTITLE6=The Year That Santa Never Came
TTITLE7=Run Rudolph Run
TTITLE8=It's Way Too Close To Christmas
TTITLE9=Mama's Gettin' Ready For Christmas
TTITLE10=A December To Remember
TTITLE11=Silent Night
EXTD=
EXTT0=
EXTT1=
EXTT2=
EXTT3=
EXTT4=
EXTT5=
EXTT6=
EXTT7=
EXTT8=
EXTT9=
EXTT10=
EXTT11=
PLAYORDER=
